<?xml version="1.0" encoding="iso-8859-1"?>
<!-- Uploaded to: SVG Repo, www.svgrepo.com, Generator: SVG Repo Mixer Tools -->
<svg fill="#fff" height="800px" width="800px" version="1.1" id="Layer_1" xmlns="http://www.w3.org/2000/svg" xmlns:xlink="http://www.w3.org/1999/xlink" 
	 viewBox="0 0 512 512" xml:space="preserve">
<g>
	<g>
		<path d="M501.801,67.315H10.199C4.567,67.315,0,71.881,0,77.514v356.972c0,5.633,4.567,10.199,10.199,10.199h491.602
			c5.632,0,10.199-4.566,10.199-10.199V77.514C512,71.881,507.433,67.315,501.801,67.315z M20.398,87.713h225.402v69.355H20.398
			V87.713z M373.291,177.466v68.845H138.709v-68.845H373.291z M20.398,177.466h97.912v68.845H20.398V177.466z M20.398,266.709
			h225.402v68.335H20.398V266.709z M118.311,424.287H20.398v-68.845h97.912V424.287z M373.291,424.287H138.709v-68.845h234.582
			V424.287z M491.602,424.287h-97.912v-68.845h97.912V424.287z M491.602,335.044H266.199v-68.335h225.402V335.044z M491.602,246.311
			h-97.912v-68.845h97.912V246.311z M491.602,157.068H266.199V87.713h225.402V157.068z"/>
	</g>
</g>
<g>
	<g>
		<path d="M355.952,396.749h-70.375c-5.632,0-10.199,4.566-10.199,10.199c0,5.633,4.567,10.199,10.199,10.199h70.375
			c5.632,0,10.199-4.566,10.199-10.199C366.151,401.315,361.584,396.749,355.952,396.749z"/>
	</g>
</g>
<g>
	<g>
		<path d="M252.94,396.749h-8.159c-5.632,0-10.199,4.566-10.199,10.199c0,5.633,4.567,10.199,10.199,10.199h8.159
			c5.632,0,10.199-4.566,10.199-10.199C263.139,401.315,258.572,396.749,252.94,396.749z"/>
	</g>
</g>
</svg>